# File created by Blade
# Date/Time:  Wed Jan 21 18:40:15 2015
#---------------------------------------------------------
:version 1.10
:name HOM
:units
  mass 1.0
  length 1.000000
  angle deg
:documentation
     Acclaim Skeleton File
:root
   axis xyz
   order TX TY TZ RX RY RZ
   position 0.000000 0.000000 0.000000
   orientation 0 0 0
:bonedata
   begin
      id 1
      name RightUpLeg_dum
      direction -1.000000 0.000000 0.000000
      length 3.693983
      axis 0.0 0.0 0.0 xyz
   end
   begin
      id 2
      name LeftUpLeg_dum
      direction 1.000000 0.000000 0.000000
      length 3.693983
      axis 0.0 0.0 0.0 xyz
   end
   begin
      id 3
      name Spine_dum
      direction 0.000000 1.000000 0.000000
      length 2.392956
      axis 0.0 0.0 0.0 xyz
   end
   begin
      id 4
      name RightUpLeg
      direction 0.000000 -1.000000 0.000000
      length 15.795667
      axis 0.0 0.0 0.0 xyz
      dof rx ry rz
   end
   begin
      id 5
      name RightLeg
      direction 0.000000 -1.000000 0.000000
      length 14.766989
      axis 0.0 0.0 0.0 xyz
      dof rx ry rz
   end
   begin
      id 6
      name RightFoot
      direction 0.000000 -0.258819 0.965926
      length 4.962790
      axis 15.0 0.0 0.0 xyz
      dof rx ry rz
   end
   begin
      id 7
      name RightToeBase
      direction 0.000000 0.000000 1.000000
      length 2.952750
      axis 0.0 0.0 0.0 xyz
      dof rx ry rz
   end
   begin
      id 8
      name LeftUpLeg
      direction 0.000000 -1.000000 0.000000
      length 15.795667
      axis 0.0 0.0 0.0 xyz
      dof rx ry rz
   end
   begin
      id 9
      name LeftLeg
      direction 0.000000 -1.000000 0.000000
      length 14.766989
      axis 0.0 0.0 0.0 xyz
      dof rx ry rz
   end
   begin
      id 10
      name LeftFoot
      direction 0.000000 -0.258819 0.965926
      length 4.962790
      axis 15.0 0.0 0.0 xyz
      dof rx ry rz
   end
   begin
      id 11
      name LeftToeBase
      direction 0.000000 0.000000 1.000000
      length 2.952750
      axis 0.0 0.0 0.0 xyz
      dof rx ry rz
   end
   begin
      id 12
      name Spine
      direction 0.000000 1.000000 0.000000
      length 0.000000
      axis 0.0 0.0 0.0 xyz
      dof rx ry rz
   end
   begin
      id 13
      name Spine_dum1
      direction 0.000000 1.000000 0.000000
      length 13.207411
      axis 0.0 0.0 0.0 xyz
   end
   begin
      id 14
      name Spine_dum2
      direction 0.000000 1.000000 0.000000
      length 13.207411
      axis 0.0 0.0 0.0 xyz
   end
   begin
      id 15
      name Spine_dum3
      direction 0.000000 1.000000 0.000000
      length 19.250100
      axis 0.0 0.0 0.0 xyz
   end
   begin
      id 16
      name RightShoulder
      direction -1.000000 0.000000 0.000000
      length 8.140465
      axis 0.0 0.0 90.0 xyz
      dof rx ry rz
   end
   begin
      id 17
      name RightArm
      direction -1.000000 0.000000 0.000000
      length 10.649840
      axis 0.0 0.0 90.0 xyz
      dof rx ry rz
   end
   begin
      id 18
      name RightForeArm
      direction -1.000000 0.000000 0.000000
      length 8.304624
      axis 0.0 0.0 90.0 xyz
      dof ry rz rx
   end
   begin
      id 19
      name RightHand
      direction -1.000000 0.000000 0.000000
      length 0.000000
      axis 0.0 0.0 90.0 xyz
      dof rx ry rz
   end
   begin
      id 20
      name RightHand_dum1
      direction -1.000000 0.000000 0.000000
      length 3.937000
      axis 0.0 0.0 90.0 xyz
   end
   begin
      id 21
      name RightHand_dum2
      direction 0.000000 0.000000 0.000000
      length 0.000000
      axis 0.0 0.0 90.0 xyz
   end
   begin
      id 22
      name RightHandThumb1
      direction 0.000000 0.000000 1.000000
      length 3.937000
      axis 0.0 0.0 90.0 xyz
      dof rx rz ry
   end
   begin
      id 23
      name LeftShoulder
      direction 1.000000 0.000000 0.000000
      length 8.140465
      axis 0.0 0.0 -90.0 xyz
      dof rx ry rz
   end
   begin
      id 24
      name LeftArm
      direction 1.000000 0.000000 0.000000
      length 10.649840
      axis 0.0 0.0 -90.0 xyz
      dof rx ry rz
   end
   begin
      id 25
      name LeftForeArm
      direction 1.000000 0.000000 0.000000
      length 8.304624
      axis 0.0 0.0 -90.0 xyz
      dof ry rz rx
   end
   begin
      id 26
      name LeftHand
      direction 1.000000 0.000000 0.000000
      length 0.000000
      axis 0.0 0.0 -90.0 xyz
      dof rx ry rz
   end
   begin
      id 27
      name LeftHand_dum1
      direction 1.000000 0.000000 0.000000
      length 3.937000
      axis 0.0 0.0 -90.0 xyz
   end
   begin
      id 28
      name LeftHand_dum2
      direction 0.000000 0.000000 0.000000
      length 0.000000
      axis 0.0 0.0 -90.0 xyz
   end
   begin
      id 29
      name LeftHandThumb1
      direction 0.000000 0.000000 1.000000
      length 3.937000
      axis 0.0 0.0 -90.0 xyz
      dof rx rz ry
   end
   begin
      id 30
      name Head
      direction 0.000000 1.000000 0.000000
      length 4.527550
      axis 0.0 0.0 0.0 xyz
      dof rx ry rz
   end
:hierarchy
   begin
      root RightUpLeg_dum LeftUpLeg_dum Spine_dum
      RightUpLeg_dum RightUpLeg
      LeftUpLeg_dum LeftUpLeg
      Spine_dum Spine
      RightUpLeg RightLeg
      RightLeg RightFoot
      RightFoot RightToeBase
      LeftUpLeg LeftLeg
      LeftLeg LeftFoot
      LeftFoot LeftToeBase
      Spine Spine_dum1 Spine_dum2 Spine_dum3
      Spine_dum1 RightShoulder
      Spine_dum2 LeftShoulder
      Spine_dum3 Head
      RightShoulder RightArm
      RightArm RightForeArm
      RightForeArm RightHand
      RightHand RightHand_dum1 RightHand_dum2
      RightHand_dum2 RightHandThumb1
      LeftShoulder LeftArm
      LeftArm LeftForeArm
      LeftForeArm LeftHand
      LeftHand LeftHand_dum1 LeftHand_dum2
      LeftHand_dum2 LeftHandThumb1
   end

# File created by Blade
# Date/Time:  Wed Jan 21 18:40:08 2015
# Frame Rate: 120.000 fps
#------------------------------------------------------
:FULLY-SPECIFIED
:DEGREES
1382
root 0.293186 28.190191 -10.214154 133.275853 -38.342578 -0.116443
RightUpLeg -158.379437 -18.164706 11.509256
RightLeg 1.685025 -0.000000 -0.000000
RightFoot 13.581157 5.777088 44.450313
RightToeBase 19.714067 -0.000000 -0.000000
LeftUpLeg -116.866874 -1.033291 -48.770534
LeftLeg -12.340693 -0.000000 0.000000
LeftFoot 1.730472 4.545250 -24.407524
LeftToeBase 7.657065 -0.000000 -0.000000
Spine -53.277186 -57.022733 65.961947
RightShoulder -32.553420 -15.948684 -43.359968
RightArm -31.554238 -26.361076 75.872200
RightForeArm 2.256819 -0.000000 -16.878319
RightHand 10.314103 -0.000000 2.959516
RightHandThumb1 -24.326973 -0.000000 -32.862282
LeftShoulder 0.468807 -8.964799 52.586898
LeftArm 48.887201 31.116834 -18.077428
LeftForeArm 31.035313 -0.000000 9.281071
LeftHand -24.498056 -0.000000 26.846437
LeftHandThumb1 -26.253704 0.000000 33.147579
Head -26.920249 -55.651815 38.712768
1383
root 0.294439 28.189408 -10.226490 133.286905 -38.282457 -0.104428
RightUpLeg -158.405278 -18.176930 11.547304
RightLeg 1.690438 -0.000000 -0.000000
RightFoot 13.615744 5.777526 44.489492
RightToeBase 19.665753 -0.000000 -0.000000
LeftUpLeg -116.928878 -1.047217 -48.733602
LeftLeg -12.347916 -0.000000 0.000000
LeftFoot 1.758491 4.542512 -24.321138
LeftToeBase 7.614913 -0.000000 -0.000000
Spine -53.206132 -57.035689 65.904408
RightShoulder -32.539443 -15.902524 -43.374778
RightArm -31.506011 -26.298408 75.774070
RightForeArm 2.104321 -0.000000 -16.859511
RightHand 10.432940 -0.000000 2.727709
RightHandThumb1 -24.326973 -0.000000 -32.862282
LeftShoulder 0.491093 -8.982637 52.698678
LeftArm 49.140013 31.359601 -17.706173
LeftForeArm 31.591065 0.000000 9.502874
LeftHand -25.068638 -0.000000 26.081742
LeftHandThumb1 -26.253704 0.000000 33.147579
Head -26.883920 -55.659693 38.741148
1384
root 0.295572 28.188840 -10.237051 133.288217 -38.239573 -0.090816
RightUpLeg -158.423323 -18.216192 11.572299
RightLeg 1.697543 -0.000000 -0.000000
RightFoot 13.637850 5.775598 44.598741
RightToeBase 19.710958 -0.000000 -0.000000
LeftUpLeg -116.961875 -1.071734 -48.724111
LeftLeg -12.367798 -0.000000 0.000000
LeftFoot 1.755023 4.523081 -24.291767
LeftToeBase 7.719383 -0.000000 -0.000000
Spine -53.143477 -57.065803 65.840956
RightShoulder -32.513716 -15.867897 -43.373661
RightArm -31.444113 -26.191766 75.665003
RightForeArm 1.962423 -0.000000 -16.839965
RightHand 10.607876 -0.000000 2.514431
RightHandThumb1 -24.326973 -0.000000 -32.862282
LeftShoulder 0.512210 -9.012329 52.796562
LeftArm 49.447402 31.606821 -17.288683
LeftForeArm 32.306902 -0.000000 9.708454
LeftHand -25.700900 -0.000000 25.451564
LeftHandThumb1 -26.253704 0.000000 33.147579
Head -26.836020 -55.662688 38.783216
1385
root 0.297827 28.187903 -10.246667 133.297132 -38.199794 -0.075920
RightUpLeg -158.418693 -18.314920 11.586319
RightLeg 1.641127 -0.000000 -0.000000
RightFoot 13.706176 5.719986 44.785615
RightToeBase 19.651688 -0.000000 -0.000000
LeftUpLeg -116.998417 -1.113234 -48.725379
LeftLeg -12.386794 -0.000000 0.000000
LeftFoot 1.780241 4.498141 -24.203972
LeftToeBase 7.709468 -0.000000 -0.000000
Spine -53.073758 -57.066039 65.762098
RightShoulder -32.492625 -15.847425 -43.408933
RightArm -31.357568 -26.005457 75.524851
RightForeArm 1.741129 -0.000000 -16.841613
RightHand 10.728597 -0.000000 2.332595
RightHandThumb1 -24.326973 -0.000000 -32.862282
LeftShoulder 0.521495 -9.055444 52.861343
LeftArm 49.786569 31.751529 -16.889790
LeftForeArm 33.232710 -0.000000 9.959439
LeftHand -26.485354 -0.000000 24.136286
LeftHandThumb1 -26.253704 0.000000 33.147579
Head -26.805782 -55.680232 38.805350
1386
root 0.299662 28.186161 -10.255806 133.286660 -38.160599 -0.048417
RightUpLeg -158.450020 -18.366896 11.629816
RightLeg 1.667472 -0.000000 -0.000000
RightFoot 13.749952 5.740454 44.932719
RightToeBase 19.621640 -0.000000 -0.000000
LeftUpLeg -117.016508 -1.149506 -48.723607
LeftLeg -12.413560 -0.000000 0.000000
LeftFoot 1.819707 4.461398 -24.137030
LeftToeBase 7.689196 -0.000000 -0.000000
Spine -52.993056 -57.079324 65.690760
RightShoulder -32.482645 -15.849021 -43.402540
RightArm -31.466182 -26.299321 75.771804
RightForeArm 2.039709 -0.000000 -16.725794
RightHand 10.666278 -0.000000 2.552568
RightHandThumb1 -24.326973 -0.000000 -32.862282
LeftShoulder 0.501491 -9.130298 52.913484
LeftArm 50.175382 31.945821 -16.460809
LeftForeArm 33.984272 -0.000000 10.210762
LeftHand -27.320371 -0.000000 23.276829
LeftHandThumb1 -26.253704 0.000000 33.147579
Head -26.889880 -55.691517 38.908645
1387
root 0.301831 28.185772 -10.264961 133.298197 -38.129152 -0.039004
RightUpLeg -158.473790 -18.421606 11.652596
RightLeg 1.664978 -0.000000 -0.000000
RightFoot 13.791113 5.719399 45.068942
RightToeBase 19.641112 -0.000000 -0.000000
LeftUpLeg -117.047333 -1.197639 -48.754057
LeftLeg -12.435781 -0.000000 0.000000
LeftFoot 1.855334 4.397060 -24.137070
LeftToeBase 7.750344 -0.000000 -0.000000
Spine -52.893090 -57.078021 65.574059
RightShoulder -32.501438 -15.841688 -43.403666
RightArm -31.446709 -26.363340 75.817105
RightForeArm 2.032236 -0.000000 -16.715456
RightHand 10.574684 -0.000000 2.575994
RightHandThumb1 -24.326973 -0.000000 -32.862282
LeftShoulder 0.430586 -9.252814 52.889869
LeftArm 50.704007 32.166666 -15.853987
LeftForeArm 34.588433 -0.000000 10.406059
LeftHand -27.682070 0.000000 22.379568
LeftHandThumb1 -26.253704 0.000000 33.147579
Head -26.961171 -55.734202 39.007487
1388
root 0.301647 28.185861 -10.277363 133.328494 -38.089893 -0.052971
RightUpLeg -158.478647 -18.492584 11.638527
RightLeg 1.643046 -0.000000 -0.000000
RightFoot 13.803152 5.643047 45.197017
RightToeBase 19.631212 -0.000000 -0.000000
LeftUpLeg -117.110620 -1.216637 -48.768123
LeftLeg -12.442128 -0.000000 0.000000
LeftFoot 1.886344 4.368191 -24.138081
LeftToeBase 7.761197 -0.000000 -0.000000
Spine -52.774362 -57.061833 65.413377
RightShoulder -32.499681 -15.833425 -43.404892
RightArm -31.474577 -26.467306 75.916825
RightForeArm 2.142526 -0.000000 -16.723122
RightHand 10.530824 -0.000000 2.555168
RightHandThumb1 -24.326973 -0.000000 -32.862282
LeftShoulder 0.426189 -9.317999 52.892977
LeftArm 51.137556 32.291731 -15.372856
LeftForeArm 35.667713 -0.000000 10.675891
LeftHand -28.329999 -0.000000 21.120463
LeftHandThumb1 -26.253704 0.000000 33.147579
Head -26.972621 -55.782247 39.056617
